<?xml version="1.0" encoding="UTF-8"?>
<svg width="482px" height="382px" viewBox="0 0 482 382" version="1.1" xmlns="http://www.w3.org/2000/svg" xmlns:xlink="http://www.w3.org/1999/xlink">
    <!-- Generator: Sketch 52.6 (67491) - http://www.bohemiancoding.com/sketch -->
    <title>undraw_book_lover_mkck</title>
    <desc>Created with Sketch.</desc>
    <defs>
        <linearGradient x1="49.9983096%" y1="100.00595%" x2="49.9983096%" y2="-0.00150157813%" id="linearGradient-1">
            <stop stop-color="#808080" stop-opacity="0.25" offset="0%"></stop>
            <stop stop-color="#808080" stop-opacity="0.12" offset="54%"></stop>
            <stop stop-color="#808080" stop-opacity="0.1" offset="100%"></stop>
        </linearGradient>
    </defs>
    <g id="Welcome" stroke="none" stroke-width="1" fill="none" fill-rule="evenodd">
        <g id="Desktop-HD" transform="translate(-776.000000, -169.000000)">
            <g id="undraw_book_lover_mkck" transform="translate(776.000000, 169.000000)">
                <path d="M282.56241,65.4268098 C252.046692,64.3679387 222.97849,54.5369088 195.225783,43.7787785 C167.473076,33.0206482 139.984411,21.1001127 110.199523,15.4010331 C91.0423283,11.7349861 69.131552,11.2173158 53.6992364,21.467188 C38.8421552,31.3499849 34.0422477,48.3625138 31.4631226,64.1655767 C29.5205274,76.0531695 28.3794884,88.5619667 33.7027651,99.6918785 C37.3946389,107.419284 43.9532552,113.913694 48.4844056,121.33991 C64.265634,147.091655 53.1145718,178.848375 36.0131331,203.993034 C27.9975705,215.791211 18.6853727,227.052894 12.4992443,239.59934 C6.31311596,252.145786 3.44637355,266.541727 8.85923586,279.351714 C14.2296628,292.058167 27.0215578,301.583301 40.8743361,308.289484 C69.0183911,321.913626 102.169815,325.810271 134.519683,328.017429 C206.108088,332.907061 278.073695,330.789319 349.850701,328.671576 C376.415219,327.885659 403.092897,327.090329 429.223632,322.991321 C443.736515,320.713572 458.716187,317.103998 469.254295,308.3789 C482.626139,297.305461 485.94081,278.551678 476.98224,264.668701 C461.945987,241.378243 420.401798,235.594454 409.877835,210.595684 C404.0972,196.839772 410.038147,181.516731 418.440342,168.753804 C436.470643,141.383163 466.689315,117.367967 468.282997,86.0818553 C469.376886,64.5891251 454.845142,43.0728644 432.382706,32.9029958 C408.840527,22.2060447 376.184182,23.5613997 358.823416,41.2045452 C340.934567,59.3841854 309.504131,66.3586164 282.56241,65.4268098 Z" id="Path" fill="#6C63FF" opacity="0.1"></path>
                <polygon id="Path" fill="#6C63FF" points="205.609852 325 44.0528078 324.211887 28 286.566514 84.7630305 282.446618 74.8698564 241.17215 187.140391 226.622734 79.6323624 189.255796 89.1290544 187 262 215.197456 252.479708 279.610355 238.871873 315.00937"></polygon>
                <path d="M46,309.159248 C46,309.159248 56,307.520042 62,314.75987 C62,314.75987 57.6,318.311484 48.1333333,313.393865 L46,309.159248 Z" id="Path" fill="#6C63FF"></path>
                <path d="M45.7140693,308 C45.7140693,308 39.9454305,315.570732 42.7867003,324 C42.7867003,324 47.4877104,321.993687 48,311.773888 L45.7140693,308 Z" id="Path" fill="#6C63FF"></path>
                <path d="M40,295.532112 C40,295.532112 43.8,288.215426 59,298.456887 C59,298.456887 56.9733333,303.375827 50.26,302.976994 C43.5466667,302.578161 41.7733333,299.387497 40,295.532112 Z" id="Path" fill="#6C63FF"></path>
                <path d="M37.8839282,295.007413 C37.8839282,295.007413 29.7852426,294.114532 29,311.927511 C29,311.927511 34.1342786,312.94986 37.7817073,307.31578 C41.429136,301.6817 39.9329933,298.5209 37.8839282,295.007413 Z" id="Path" fill="#6C63FF"></path>
                <path d="M33,279.942408 C33,279.942408 37.7530864,267.183363 55,276.259385 C55,276.259385 51.0617284,287.966137 34.7654321,284.283114 L33,279.942408 Z" id="Path" fill="#6C63FF"></path>
                <path d="M29,261.74932 C29,261.74932 37.6557377,249.434284 53,260.851723 C53,260.851723 47.6229508,272.412777 30.3114754,266.129596 L29,261.74932 Z" id="Path" fill="#6C63FF"></path>
                <path d="M26,243.298214 C26,243.298214 35.9814815,231.377233 51,243.298214 C51,243.298214 41.537037,253.758036 26,246.343479 L26,243.298214 Z" id="Path" fill="#6C63FF"></path>
                <path d="M26,225.622853 C26,225.622853 36.3174603,213.416088 51,224.973557 C51,224.973557 39.3597884,235.751871 26,228.479756 L26,225.622853 Z" id="Path" fill="#6C63FF"></path>
                <path d="M26,209.732247 C26,209.732247 37.0407066,194.07969 51,204.687208 C51,204.687208 39.172043,218.140645 26,212.707526 L26,209.732247 Z" id="Path" fill="#6C63FF"></path>
                <path d="M29,191.131281 C29,191.131281 40.5691489,175.571171 54,187.500589 C54,187.500589 40.3031915,200.986017 29,193.983968 L29,191.131281 Z" id="Path" fill="#6C63FF"></path>
                <path d="M32.5928339,174.593316 C32.5928339,174.593316 46.1621426,159.359865 58,165.428162 C58,165.428162 43.8613826,181.607071 32,178.635631 L32.5928339,174.593316 Z" id="Path" fill="#6C63FF"></path>
                <path d="M37.1156364,158.749826 C37.1156364,158.749826 52.848,141.38564 62,147.185673 C62,147.185673 50.4087273,160.653243 36,162 L37.1156364,158.749826 Z" id="Path" fill="#6C63FF"></path>
                <path d="M43.8715022,141.473271 C43.8715022,141.473271 57.814433,126.974883 68,130.57423 C68,130.57423 56.0721649,145.614356 42,146 L43.8715022,141.473271 Z" id="Path" fill="#6C63FF"></path>
                <path d="M50.6470588,125.635567 C50.6470588,125.635567 65.5294118,110.679309 72,113.310502 C72,113.310502 61.2588235,129.928568 50,128.959181 L50.6470588,125.635567 Z" id="Path" fill="#6C63FF"></path>
                <path d="M58,109.320806 C58,109.320806 70.2912485,92.7896654 77,94.0707945 C77,94.0707945 69.5463244,108.808354 58,111 L58,109.320806 Z" id="Path" fill="#6C63FF"></path>
                <path d="M62.4952258,87.8117995 C62.4952258,87.8117995 74.508129,74.9722237 81,75 C81,75 71.5171613,92.1565747 62,91.9989201 L62.4952258,87.8117995 Z" id="Path" fill="#6C63FF"></path>
                <path d="M67.353458,72.9926879 L77.9967641,46 C77.9967641,46 78.5273556,70.400117 66,78 L67.353458,72.9926879 Z" id="Path" fill="#6C63FF"></path>
                <path d="M72.0740891,44.848712 C72.0740891,44.848712 73.8892726,21.8699741 72.7223689,20 C72.7223689,20 80.5572937,39.1052201 72,55 L72.0740891,44.848712 Z" id="Path" fill="#6C63FF"></path>
                <path d="M33.6657433,279.381169 C33.6657433,279.381169 22.3361034,272.554526 15,289.25534 C15,289.25534 25.0831025,295.763316 35,283.640527 L33.6657433,279.381169 Z" id="Path" fill="#6C63FF"></path>
                <path d="M28.7293423,260.118972 C28.7293423,260.118972 14.7706577,253.594038 8,272.056797 C8,272.056797 18.7820405,279.660508 30,264.785749 L28.7293423,260.118972 Z" id="Path" fill="#6C63FF"></path>
                <path d="M26,244.298214 C26,244.298214 16.0185185,232.377233 1,244.298214 C1,244.298214 10.462963,254.758036 26,247.343479 L26,244.298214 Z" id="Path" fill="#6C63FF"></path>
                <path d="M25,225.622853 C25,225.622853 14.6825397,213.416088 0,224.973557 C0,224.973557 11.6402116,235.751871 25,228.479756 L25,225.622853 Z" id="Path" fill="#6C63FF"></path>
                <path d="M26,209.593113 C26,209.593113 19.0678733,191.00224 4,198.99705 C4,198.99705 12.1447964,215.481447 25.3846154,212.679345 L26,209.593113 Z" id="Path" fill="#6C63FF"></path>
                <path d="M28,191.417114 C28,191.417114 21.1620408,172.576079 6,181.31098 C6,181.31098 15.284898,198.580708 27.3265306,194.325494 L28,191.417114 Z" id="Path" fill="#6C63FF"></path>
                <path d="M35,174.451163 C35,174.451163 32.1764706,154.762791 19,153 C19,153 21.7952941,173.762791 33.2258824,178 L35,174.451163 Z" id="Path" fill="#6C63FF"></path>
                <path d="M37,158.630667 C37,158.630667 35.8983915,134.830667 25,134 C25,134 25.3672028,152.064667 35.7712829,162 L37,158.630667 Z" id="Path" fill="#6C63FF"></path>
                <path d="M45,141.153966 C45,141.153966 41.9068966,121.411379 32,119 C32,119 33.2282759,138.118793 44.0182759,146 L45,141.153966 Z" id="Path" fill="#6C63FF"></path>
                <path d="M52,125.295685 C52,125.295685 51.8971402,104.111881 45.8597197,101 C45.8597197,101 42.1165189,120.179542 50.2513841,128 L52,125.295685 Z" id="Path" fill="#6C63FF"></path>
                <path d="M58,108.588192 C58,108.588192 57.1943967,87.0368076 51.23549,84 C51.23549,84 49.1980383,101.055394 57.1091477,110 L58,108.588192 Z" id="Path" fill="#6C63FF"></path>
                <path d="M64,89.498494 C64,89.498494 63.9639634,72.0850904 59.4684026,68 C59.4684026,68 54.9998692,87.0747364 61.653119,93 L64,89.498494 Z" id="Path" fill="#6C63FF"></path>
                <path d="M66.8011538,72.6464924 L62.6037705,43 C62.6037705,43 56.9020726,67.2929849 67,78 L66.8011538,72.6464924 Z" id="Path" fill="#6C63FF"></path>
                <path d="M67.4880836,43.2307692 C67.4880836,43.2307692 55.7636878,24.1230769 56.0036333,22 C56.0036333,22 57.250409,42.0261538 72,52 L67.4880836,43.2307692 Z" id="Path" fill="#6C63FF"></path>
                <path d="M68.1317829,39 C68.1317829,39 57.7131783,11.246696 53,9 C53,9 67.8837209,17.061674 69,38.2070485 L68.1317829,39 Z" id="Path" fill="#6C63FF"></path>
                <path d="M62.7571297,92 L62,91.7675758 C71.3347973,61.0638658 73.6626183,41.4880569 68.5602228,36.5786888 L69.1010297,36 C74.5138014,41.1797391 72.3176551,60.5420972 62.7571297,92 Z" id="Path" fill="#444053"></path>
                <path d="M37.1391453,164 L36,163.597543 C37.0099145,160.789814 38.0964103,157.939471 39.2355556,155.131742 C49.1528205,130.681298 57.5958974,107.935377 63.0092308,90.4734788 L64,90 C58.577094,107.495041 50.2823932,131.112163 40.3555556,155.595751 C39.2211966,158.351398 38.1394872,161.187536 37.1391453,164 Z" id="Path" fill="#444053"></path>
                <path d="M59.8236796,331 C59.6743056,330.83559 44.6575489,313.8168 34.1873638,284.763194 C28.0524576,267.753501 24.638208,249.872011 24.071942,231.785576 C23.3530796,209.176844 28.067697,183.932854 36.1432298,161 L37.0208022,162.033435 C18.8905308,213.503178 26.0931592,257.60735 35.6484284,284.166621 C46.006583,312.95717 60.8552939,329.788063 61,329.95717 L59.8236796,331 Z" id="Path" fill="#444053"></path>
                <path d="M297,294 C297,294 286.365381,307.137958 294.809278,326.999209 L209.901204,364.271696 L201.752843,366 L198,349.381693 L200.509714,328.409391 L200.509714,316.947507 L297,294 Z" id="Path" fill="#D5D6DB"></path>
                <polygon id="Path" fill="#6C63FF" points="29 285.917001 146.847237 264 303 289.377075 206.010765 325"></polygon>
                <polygon id="Path" fill="#6C63FF" points="29 285.917001 146.847237 264 303 289.377075 206.010765 325"></polygon>
                <path d="M28.4503085,287 C28.4503085,287 17.3941525,307.871783 30.1349213,327.149617 L205.438462,365 C205.438462,365 194.556902,348.374043 206,325.297064 L28.4503085,287 Z" id="Path" fill="#6C63FF"></path>
                <path d="M28.4503085,287 C28.4503085,287 17.3941525,307.871783 30.1349213,327.149617 L205.438462,365 C205.438462,365 194.556902,348.374043 206,325.297064 L28.4503085,287 Z" id="Path" fill="#000000" opacity="0.1"></path>
                <path d="M34,294 C34,294 25,309.17757 34,319" id="Path" fill="#000000" opacity="0.1"></path>
                <path d="M204.114772,364.969072 L301.877365,323 C301.877365,323 307.345283,324.185567 303.809991,328.216495 C300.2747,332.247423 206.00026,369 206.00026,369 L29,326.793814 L204.114772,364.969072 Z" id="Path" fill="#6C63FF"></path>
                <path d="M204.114772,364.969072 L301.877365,323 C301.877365,323 307.345283,324.185567 303.809991,328.216495 C300.2747,332.247423 206.00026,369 206.00026,369 L29,326.793814 L204.114772,364.969072 Z" id="Path" fill="#000000" opacity="0.1"></path>
                <path d="M196,329 C196,329 187,340.2 196,357" id="Path" fill="#000000" opacity="0.1"></path>
                <polygon id="Rectangle" fill="#000000" opacity="0.1" transform="translate(221.145625, 336.204383) rotate(-18.450000) translate(-221.145625, -336.204383) " points="198.869425 335.960547 243.421644 335.977597 243.421825 336.448219 198.869605 336.43117"></polygon>
                <polygon id="Rectangle" fill="#000000" opacity="0.1" transform="translate(225.381108, 337.394186) rotate(-20.820000) translate(-225.381108, -337.394186) " points="198.239309 337.147372 252.522707 337.170362 252.522907 337.641 198.239508 337.61801"></polygon>
                <polygon id="Rectangle" fill="#000000" opacity="0.1" transform="translate(229.415718, 339.591956) rotate(-22.260000) translate(-229.415718, -339.591956) " points="197.957086 339.342572 260.874139 339.370691 260.87435 339.84134 197.957296 339.813221"></polygon>
                <polygon id="Rectangle" fill="#000000" opacity="0.1" transform="translate(233.990729, 340.537197) rotate(-24.310000) translate(-233.990729, -340.537197) " points="197.780121 340.284545 270.201112 340.319184 270.201337 340.789848 197.780347 340.75521"></polygon>
                <polygon id="Rectangle" fill="#000000" opacity="0.1" transform="translate(237.800925, 341.502187) rotate(-23.610000) translate(-237.800925, -341.502187) " points="198.195864 341.248328 277.405765 341.285387 277.405986 341.756046 198.196084 341.718987"></polygon>
                <polygon id="Rectangle" fill="#000000" opacity="0.1" transform="translate(246.115681, 341.794172) rotate(-23.360000) translate(-246.115681, -341.794172) " points="198.721336 341.53685 293.509806 341.580836 293.510025 342.051494 198.721555 342.007507"></polygon>
                <polygon id="Path" fill="#FFFFFF" opacity="0.3" points="72 289.119403 154.64953 272 205 281.485075 137.274345 303"></polygon>
                <path d="M301.45558,289 C301.45558,289 305.712142,290.730432 303.214335,293.40388 C300.716528,296.077327 205,324 205,324 L301.45558,289 Z" id="Path" fill="#6C63FF"></path>
                <path d="M344,249 C344,249 333.369568,262.131478 341.813865,281.994857 L256.901768,319.262429 L248.753021,321 L245,304.383885 L247.547363,283.419095 L247.547363,271.944481 L344,249 Z" id="Path" fill="#D5D6DB"></path>
                <polygon id="Path" fill="#3A3768" points="75 241.912202 192.842533 220 349 245.377075 252.010765 281"></polygon>
                <path d="M75.4531701,242 C75.4531701,242 64.3933554,262.871783 77.1329031,282.149617 L252.419643,320 C252.419643,320 241.543844,303.359937 253,280.292362 L75.4531701,242 Z" id="Path" fill="#3A3768"></path>
                <path d="M75.4531701,242 C75.4531701,242 64.3933554,262.871783 77.1329031,282.149617 L252.419643,320 C252.419643,320 241.543844,303.359937 253,280.292362 L197.568812,268.335403 L75.4531701,242 Z" id="Path" fill="#000000" opacity="0.1"></path>
                <path d="M81,249 C81,249 72,264.172897 81,274" id="Path" fill="#000000" opacity="0.1"></path>
                <path d="M251.114323,319.969072 L348.88138,278 C348.88138,278 354.34457,279.185567 350.809287,283.216495 C347.274005,287.247423 252.999807,324 252.999807,324 L76,281.793814 L251.114323,319.969072 Z" id="Path" fill="#3A3768"></path>
                <path d="M251.114323,319.969072 L348.88138,278 C348.88138,278 354.34457,279.185567 350.809287,283.216495 C347.274005,287.247423 252.999807,324 252.999807,324 L76,281.793814 L251.114323,319.969072 Z" id="Path" fill="#000000" opacity="0.1"></path>
                <path d="M243,285 C243,285 234,296.2 243,313" id="Path" fill="#000000" opacity="0.1"></path>
                <polygon id="Rectangle" fill="#000000" opacity="0.1" transform="translate(267.931079, 290.950666) rotate(-18.450000) translate(-267.931079, -290.950666) " points="245.654879 290.70683 290.207099 290.72388 290.207279 291.194503 245.655059 291.177453"></polygon>
                <polygon id="Rectangle" fill="#000000" opacity="0.1" transform="translate(272.172473, 292.138228) rotate(-20.820000) translate(-272.172473, -292.138228) " points="245.030674 291.891413 299.314073 291.914403 299.314272 292.385042 245.030874 292.362052"></polygon>
                <polygon id="Rectangle" fill="#000000" opacity="0.1" transform="translate(276.200178, 294.329482) rotate(-22.260000) translate(-276.200178, -294.329482) " points="244.741546 294.080098 307.658599 294.108217 307.65881 294.578866 244.741756 294.550747"></polygon>
                <polygon id="Rectangle" fill="#000000" opacity="0.1" transform="translate(280.780647, 295.275640) rotate(-24.310000) translate(-280.780647, -295.275640) " points="244.570039 295.022989 316.991029 295.057627 316.991255 295.528292 244.570264 295.493653"></polygon>
                <polygon id="Rectangle" fill="#000000" opacity="0.1" transform="translate(284.584100, 296.234644) rotate(-23.610000) translate(-284.584100, -296.234644) " points="244.979039 295.980785 324.188941 296.017843 324.189161 296.488502 244.97926 296.451444"></polygon>
                <polygon id="Rectangle" fill="#000000" opacity="0.1" transform="translate(292.902440, 296.526689) rotate(-23.360000) translate(-292.902440, -296.526689) " points="245.508096 296.269367 340.296565 296.313354 340.296784 296.784011 245.508314 296.740024"></polygon>
                <polygon id="Path" fill="#FFFFFF" opacity="0.45" points="119 244.119403 201.64953 227 252 236.485075 184.274345 258"></polygon>
                <path d="M349.457073,245 C349.457073,245 353.709642,246.730666 351.216111,249.399757 C348.722581,252.068849 253,280 253,280 L349.457073,245 Z" id="Path" fill="#3A3768"></path>
                <path d="M349,198 C349,198 338.363365,221.579086 346.808863,241.436408 L261.884692,268.257797 L253.753555,270 L250,253.384981 L252.51019,232.416826 L252.51019,220.942968 L349,198 Z" id="Path" fill="#D5D6DB"></path>
                <polygon id="Path" fill="#6C63FF" points="79 189.917001 196.845214 168 353 193.377075 256.007726 229"></polygon>
                <path d="M79.4632591,190 C79.4632591,190 68.3887414,210.871783 81.1289195,230.149617 L256.424333,268 C256.424333,268 245.543277,251.359937 257,228.297064 L79.4632591,190 Z" id="Path" fill="#6C63FF"></path>
                <path d="M79.4632591,190 C79.4632591,190 68.3887414,210.871783 81.1289195,230.149617 L256.424333,268 C256.424333,268 245.543277,251.359937 257,228.297064 L79.4632591,190 Z" id="Path" fill="#000000" opacity="0.1"></path>
                <path d="M85,198 C85,198 76,213.17757 85,223" id="Path" fill="#000000" opacity="0.1"></path>
                <path d="M256.114772,266.988764 L353.877365,235.606742 C353.877365,235.606742 359.345283,236.786517 355.809991,240.797753 C352.2747,244.808989 258.00026,271 258.00026,271 L81,229 L256.114772,266.988764 Z" id="Path" fill="#6C63FF"></path>
                <path d="M256.114772,266.988764 L353.877365,235.606742 C353.877365,235.606742 359.345283,236.786517 355.809991,240.797753 C352.2747,244.808989 258.00026,271 258.00026,271 L81,229 L256.114772,266.988764 Z" id="Path" fill="#000000" opacity="0.1"></path>
                <path d="M249,232 C249,232 240,243.2 249,260" id="Path" fill="#000000" opacity="0.1"></path>
                <polygon id="Rectangle" fill="#000000" opacity="0.1" transform="translate(272.380191, 239.173700) rotate(-18.450000) translate(-272.380191, -239.173700) " points="250.103991 238.929864 294.656211 238.946914 294.656391 239.417537 250.104171 239.400487"></polygon>
                <polygon id="Rectangle" fill="#000000" opacity="0.1" transform="translate(276.618330, 240.363644) rotate(-20.820000) translate(-276.618330, -240.363644) " points="249.476531 240.11683 303.759929 240.139819 303.760129 240.610458 249.47673 240.587468"></polygon>
                <polygon id="Rectangle" fill="#000000" opacity="0.1" transform="translate(280.641712, 242.557171) rotate(-22.260000) translate(-280.641712, -242.557171) " points="249.18308 242.307787 312.100134 242.335907 312.100344 242.806556 249.183291 242.778436"></polygon>
                <polygon id="Rectangle" fill="#000000" opacity="0.1" transform="translate(285.228738, 243.499210) rotate(-24.310000) translate(-285.228738, -243.499210) " points="249.018131 243.246559 321.439121 243.281197 321.439346 243.751862 249.018356 243.717223"></polygon>
                <polygon id="Rectangle" fill="#000000" opacity="0.1" transform="translate(289.034618, 244.462703) rotate(-23.610000) translate(-289.034618, -244.462703) " points="249.429557 244.208844 328.639459 244.245902 328.639679 244.716561 249.429777 244.679503"></polygon>
                <polygon id="Rectangle" fill="#000000" opacity="0.1" transform="translate(297.351403, 244.757794) rotate(-23.360000) translate(-297.351403, -244.757794) " points="249.957059 244.500472 344.745529 244.544459 344.745748 245.015116 249.957278 244.971129"></polygon>
                <polygon id="Path" fill="#FFFFFF" opacity="0.3" points="123 192.119403 205.64953 175 256 184.485075 188.274345 206"></polygon>
                <path d="M353.455219,193 C353.455219,193 357.712385,194.730432 355.214224,197.40388 C352.716063,200.077327 257,228 257,228 L353.455219,193 Z" id="Path" fill="#6C63FF"></path>
                <path d="M145.648683,50.0236112 C145.648683,50.0236112 128.118166,48.9250869 130.166468,61.714021 C130.166468,61.714021 129.755885,63.9734314 131.725762,65 C131.725762,65 131.758055,64.0405901 133.524946,64.3715865 C134.15546,64.484212 134.796832,64.5164303 135.43485,64.4675275 C136.294901,64.406301 137.112528,64.0561218 137.764563,63.4697412 C137.764563,63.4697412 142.696175,61.3494453 144.615305,52.9642026 C144.615305,52.9642026 146.0362,51.1365267 145.999293,50.6664159 L143.028332,51.9808075 C143.028332,51.9808075 144.038643,54.2018414 143.245157,56.0487055 C143.245157,56.0487055 143.148278,52.0623573 142.576229,52.1535012 C142.460897,52.1535012 141.040002,52.9258262 141.040002,52.9258262 C141.040002,52.9258262 142.779214,56.7970452 141.464425,59.6081163 C141.464425,59.6081163 141.962661,54.839849 140.495634,53.2040551 L138.410425,54.4704762 C138.410425,54.4704762 140.444887,58.4664185 139.065512,61.7284122 C139.065512,61.7284122 139.420736,56.7250895 137.972162,54.7774874 L136.080711,56.3125432 C136.080711,56.3125432 137.995228,60.2509209 136.828065,62.9564569 C136.828065,62.9564569 136.675826,57.1328387 135.674741,56.6915101 C135.674741,56.6915101 134.018569,58.2073778 133.769451,58.8309942 C133.769451,58.8309942 135.079626,61.709224 134.263073,63.2011064 C134.263073,63.2011064 133.769451,59.3202933 133.340415,59.3011051 C133.340415,59.3011051 131.693469,61.8723237 131.522777,63.6184497 C131.60254,61.9905763 132.090826,60.4127922 132.939058,59.0420644 C131.989861,59.2288025 131.114132,59.7007857 130.420199,60.3996295 C130.420199,60.3996295 130.673931,58.5815477 133.349641,58.423245 C133.349641,58.423245 134.710563,56.4708459 135.075013,56.3557167 C135.075013,56.3557167 132.413142,56.1206612 130.803103,56.8642039 C130.803103,56.8642039 132.223997,55.1516572 135.559409,55.904794 L137.404727,54.3217676 C137.404727,54.3217676 133.90785,53.8420627 132.422369,54.3745352 C132.422369,54.3745352 134.133901,52.8586675 137.907576,53.9619889 L139.942038,52.7003649 C139.942038,52.7003649 136.957237,52.033575 135.181119,52.2734275 C135.181119,52.2734275 137.054116,51.2228736 140.537153,52.3597744 L141.985727,51.6833904 C141.985727,51.6833904 139.803639,51.2372648 139.162392,51.165309 C138.521144,51.0933533 138.488851,50.9110654 138.488851,50.9110654 C139.873825,50.6745464 141.294719,50.8405566 142.594682,51.3907704 C142.594682,51.3907704 145.708656,50.2250873 145.648683,50.0236112 Z" id="Path" fill="#6C63FF"></path>
                <path d="M398.671276,102.023611 C398.671276,102.023611 381.115449,100.925087 383.166709,113.714021 C383.166709,113.714021 382.755533,115.973431 384.728253,117 C384.728253,117 384.760593,116.04059 386.530035,116.371587 C387.161734,116.481588 387.803728,116.513791 388.442696,116.467527 C389.296158,116.40224 390.106431,116.052246 390.752674,115.469741 C390.752674,115.469741 395.696025,113.349445 397.613306,104.964203 C397.613306,104.964203 399.036252,103.136527 398.999292,102.666416 L396.033282,103.980807 C396.033282,103.980807 397.045052,106.201841 396.250419,108.048705 C396.250419,108.048705 396.1534,104.062357 395.585146,104.153501 C395.469647,104.153501 394.042081,104.925826 394.042081,104.925826 C394.042081,104.925826 395.783804,108.797045 394.471737,111.608116 C394.471737,111.608116 394.970692,106.839849 393.496927,105.204055 L391.408707,106.470476 C391.408707,106.470476 393.446107,110.466418 392.064741,113.728412 C392.064741,113.728412 392.420477,108.725089 390.969812,106.777487 L389.08025,108.312543 C389.08025,108.312543 390.992911,112.250921 389.824063,114.956457 C389.824063,114.956457 389.671604,109.132839 388.669074,108.69151 C388.669074,108.69151 387.015131,110.207378 386.761033,110.830994 C386.761033,110.830994 388.0731,113.709224 387.259988,115.201106 C387.259988,115.201106 386.761033,111.320293 386.335997,111.301105 C386.335997,111.301105 384.686674,113.872324 384.515735,115.61845 C384.595716,113.989888 385.086414,112.411735 385.938681,111.042064 C384.986914,111.229258 384.108557,111.701111 383.411566,112.399629 C383.411566,112.399629 383.670284,110.581548 386.345237,110.423245 C386.345237,110.423245 387.708124,108.470846 388.0731,108.35092 C388.0731,108.35092 385.412006,108.120661 383.795022,108.864204 C383.795022,108.864204 385.217968,107.151657 388.558195,107.904794 L390.406177,106.321768 C390.406177,106.321768 386.899632,105.842063 385.416626,106.374535 C385.416626,106.374535 387.126009,104.858668 390.909752,105.961989 L392.942532,104.700365 C392.942532,104.700365 389.953422,104.033575 388.174739,104.273427 C388.174739,104.273427 390.050441,103.222874 393.538506,104.359774 L394.993792,103.68339 C394.993792,103.68339 392.803933,103.237265 392.16176,103.165309 C391.519586,103.093353 391.487246,102.911065 391.487246,102.911065 C392.874145,102.671506 394.297889,102.83761 395.599006,103.39077 C395.599006,103.39077 398.726715,102.225087 398.671276,102.023611 Z" id="Path" fill="#6C63FF" opacity="0.1"></path>
                <path d="M177,127.785961 C177,127.785961 169.504597,112.58257 159.963347,120.075765 C159.963347,120.075765 157.903921,120.748913 158.003498,122.861356 C158.003498,122.861356 158.795585,122.458353 159.361361,124.088079 C159.572706,124.664183 159.852214,125.214115 160.194184,125.726661 C160.657285,126.421438 161.338831,126.949943 162.135927,127.232386 C162.135927,127.232386 166.2412,130.412122 174.067016,128.242107 C174.067016,128.242107 176.253175,128.609681 176.610746,128.352822 L174.112278,126.461809 C174.112278,126.461809 172.754415,128.308536 170.86246,128.472395 C170.86246,128.472395 174.103226,126.599096 173.754708,126.165093 C173.682288,126.076521 172.396845,125.221801 172.396845,125.221801 C172.396845,125.221801 170.03869,128.42368 167.096653,128.587538 C167.096653,128.587538 171.260766,126.860383 171.903488,124.889656 L169.866694,123.711647 C169.866694,123.711647 167.544748,127.2191 164.199879,127.529102 C164.199879,127.529102 168.490726,125.576089 169.400494,123.485789 L167.236966,122.600068 C167.236966,122.600068 164.905968,125.974663 162.117823,126.218236 C162.117823,126.218236 166.843186,123.468074 166.725504,122.427353 C166.725504,122.427353 164.684184,121.727634 164.050514,121.794063 C164.050514,121.794063 162.321502,124.181079 160.692067,124.181079 C160.692067,124.181079 163.647681,122.015493 163.466633,121.665633 C163.466633,121.665633 160.560806,121.444203 159.030948,122.108493 C160.40951,121.438083 161.943514,121.132707 163.480212,121.222773 C162.870562,120.511488 162.062024,119.98973 161.15374,119.721477 C161.15374,119.721477 162.774123,119.119187 164.181774,121.284774 C164.181774,121.284774 166.444879,121.546061 166.711925,121.798491 C166.711925,121.798491 165.630161,119.469047 164.249667,118.454897 C164.249667,118.454897 166.340776,118.866757 167.295806,121.997778 L169.491018,122.84807 C169.491018,122.84807 168.228206,119.694905 167.06497,118.69847 C167.06497,118.69847 169.128921,119.446904 170.029637,123.127072 L172.039274,124.260794 C172.039274,124.260794 171.165716,121.457489 170.115635,120.080194 C170.115635,120.080194 171.876331,121.178487 172.60505,124.606225 L173.85881,125.518517 C173.85881,125.518517 173.179879,123.485789 172.953569,122.918928 C172.727258,122.352067 172.840413,122.236923 172.840413,122.236923 C173.701448,123.28838 174.246791,124.553338 174.415534,125.89052 C174.415534,125.89052 176.837056,127.918819 177,127.785961 Z" id="Path" fill="#6C63FF" opacity="0.1"></path>
                <path d="M357,77.7843274 C357,77.7843274 349.509005,62.583475 339.963078,70.0754186 C339.963078,70.0754186 337.908147,70.7484537 338.003199,72.8605441 C338.003199,72.8605441 338.799824,72.4620365 339.361083,74.0870621 C339.572046,74.665429 339.853175,75.2169487 340.198445,75.7297991 C340.659889,76.423156 341.340092,76.9502005 342.135693,77.2308446 C342.135693,77.2308446 346.245556,80.4100499 354.06697,78.2448251 C354.06697,78.2448251 356.253164,78.6079098 356.615266,78.3510938 L354.130338,76.4559686 C354.130338,76.4559686 352.772454,78.3068152 350.884994,78.4706461 C350.884994,78.4706461 354.121285,76.5932323 353.772762,76.1593018 C353.700341,76.0707445 352.414877,75.2161671 352.414877,75.2161671 C352.414877,75.2161671 350.061211,78.4175117 347.114602,78.5813427 C347.114602,78.5813427 351.283307,76.8544762 351.926039,74.8885052 L349.857529,73.7195495 C349.857529,73.7195495 347.540073,77.2219888 344.190625,77.5363671 C344.190625,77.5363671 348.481539,75.5792518 349.395848,73.4893006 L347.227759,72.6037281 C347.227759,72.6037281 344.896725,75.9821873 342.113062,76.2212919 C342.113062,76.2212919 346.833973,73.4715892 346.71629,72.4354693 C346.71629,72.4354693 344.679463,71.7314392 344.045784,71.802285 C344.045784,71.802285 342.316744,74.1844751 340.682757,74.1844751 C340.682757,74.1844751 343.642945,72.0192502 343.461894,71.6694491 C343.461894,71.6694491 340.556021,71.448056 339.021612,72.1122354 C340.400127,71.4417399 341.934209,71.1364042 343.470946,71.2266628 C342.863571,70.5150434 342.0563,69.9931833 341.148964,69.7256174 C341.148964,69.7256174 342.769373,69.1234281 344.177046,71.2886529 C344.177046,71.2886529 346.440186,71.5543247 346.707237,71.8067128 C346.707237,71.8067128 345.625456,69.4732292 344.240414,68.4592487 C344.240414,68.4592487 346.331556,68.8754678 347.286601,72.0236781 L349.486374,72.8738277 C349.486374,72.8738277 348.223541,69.7167617 347.060287,68.7204926 C347.060287,68.7204926 349.124271,69.4688014 350.020475,73.1483552 L352.03467,74.281888 C352.03467,74.281888 351.156571,71.4834789 350.106474,70.1019857 C350.106474,70.1019857 351.871724,71.2000957 352.595929,74.6272613 L353.849708,75.539401 C353.849708,75.539401 353.175293,73.5070121 352.944452,72.9402457 C352.713612,72.3734793 352.831295,72.2627827 352.831295,72.2627827 C353.689894,73.3150388 354.233558,74.5795059 354.401915,75.9157694 C354.401915,75.9157694 356.859685,77.926019 357,77.7843274 Z" id="Path" fill="#6C63FF" opacity="0.1"></path>
                <path d="M382,158.787035 C382,158.787035 374.514355,143.583727 364.961676,151.074699 C364.961676,151.074699 362.908212,151.747646 363.003196,153.859463 C363.003196,153.859463 363.799253,153.461007 364.360111,155.085822 C364.569455,155.663922 364.848863,156.215366 365.192352,156.728346 C365.653466,157.421613 366.333183,157.948589 367.128217,158.229196 C367.128217,158.229196 371.235145,161.412417 379.055495,159.243045 C379.055495,159.243045 381.235605,159.61051 381.597449,159.3493 L379.100726,157.458848 C379.100726,157.458848 377.743811,159.309455 375.853177,159.473264 C375.853177,159.473264 379.087157,157.596094 378.738882,157.16222 C378.666513,157.073674 377.381968,156.219208 377.381968,156.219208 C377.381968,156.219208 375.029982,159.420137 372.085478,159.588374 C372.085478,159.588374 376.251205,157.857304 376.893478,155.891588 L374.853583,154.71393 C374.853583,154.71393 372.537783,158.220342 369.190727,158.530252 C369.190727,158.530252 373.478577,156.573391 374.392232,154.483711 L372.225692,153.598253 C372.225692,153.598253 369.896322,156.971847 367.114647,157.215347 C367.114647,157.215347 371.83671,154.466001 371.719111,153.425589 C371.719111,153.425589 369.679216,152.72165 369.045989,152.792486 C369.045989,152.792486 367.318185,155.174368 365.685364,155.174368 C365.685364,155.174368 368.643438,153.009424 368.462516,152.659668 C368.462516,152.659668 365.558719,152.438303 364.025405,153.102397 C365.4047,152.432407 366.939025,152.127154 368.476085,152.216939 C367.868286,151.504302 367.059795,150.982364 366.151238,150.716088 C366.151238,150.716088 367.770489,150.10955 369.177158,152.278921 C369.177158,152.278921 371.438682,152.540131 371.705542,152.792486 C371.705542,152.792486 370.624533,150.463733 369.245003,149.445457 C369.245003,149.445457 371.334652,149.861622 372.289015,153.009424 L374.482693,153.859463 C374.482693,153.859463 373.220763,150.702806 372.058339,149.711094 C372.058339,149.711094 374.12085,150.454878 375.016413,154.138382 L377.02917,155.267341 C377.02917,155.267341 376.151698,152.469294 375.102351,151.087981 C375.102351,151.087981 376.86634,152.185948 377.594551,155.617096 L378.847435,156.502554 C378.847435,156.502554 378.168978,154.470429 377.942826,153.903736 C377.716673,153.337043 377.829749,153.226361 377.829749,153.226361 C378.689799,154.277279 379.233332,155.542179 379.399247,156.878873 C379.399247,156.878873 381.859785,158.919853 382,158.787035 Z" id="Path" fill="#6C63FF" opacity="0.1"></path>
                <ellipse id="Oval" fill="#6C63FF" opacity="0.1" cx="95" cy="367" rx="11" ry="1"></ellipse>
                <ellipse id="Oval" fill="#6C63FF" opacity="0.1" cx="24" cy="347" rx="11" ry="1"></ellipse>
                <ellipse id="Oval" fill="#6C63FF" opacity="0.1" cx="149" cy="381" rx="11" ry="1"></ellipse>
                <ellipse id="Oval" fill="#6C63FF" opacity="0.1" cx="426" cy="352" rx="11" ry="1"></ellipse>
                <ellipse id="Oval" fill="#6C63FF" opacity="0.1" cx="337" cy="346" rx="11" ry="1"></ellipse>
                <ellipse id="Oval" fill="#6C63FF" opacity="0.1" cx="278" cy="374" rx="13" ry="2"></ellipse>
                <path d="M283.418401,351 C283.418401,351 266.922222,360.103919 275.444812,370.827555 C275.444812,370.827555 276.246528,373.154732 278.564533,372.99183 C278.564533,372.99183 278.102675,372.088885 279.871679,371.36746 C280.501128,371.107548 281.099364,370.768497 281.653754,370.357465 C282.40289,369.804248 282.962753,369.005212 283.248472,368.081485 C283.248472,368.081485 286.620908,363.259573 284.006617,354.337173 C284.006617,354.337173 284.346474,351.814512 284.050188,351.404929 L282.045898,354.341827 C282.045898,354.341827 284.115545,355.826567 284.355189,358.009459 C284.355189,358.009459 282.176613,354.346482 281.740897,354.751411 C281.64504,354.835189 280.747467,356.357163 280.747467,356.357163 C280.747467,356.357163 284.33776,358.958948 284.603546,362.33801 C284.603546,362.33801 282.581828,357.604531 280.398894,356.929649 L279.148392,359.312679 C279.148392,359.312679 283.069829,361.863266 283.505544,365.698455 C283.505544,365.698455 281.226753,360.834653 278.900034,359.852584 L277.980675,362.370591 C277.980675,362.370591 281.762683,364.939795 282.111255,368.132683 C282.111255,368.132683 278.947963,362.794137 277.810746,362.961694 C277.810746,362.961694 277.096173,365.326106 277.19203,366.05684 C277.19203,366.05684 279.862965,367.965126 279.910893,369.840831 C279.910893,369.840831 277.444745,366.512967 277.065673,366.731722 C277.065673,366.731722 276.908815,370.078203 277.66696,371.818932 C277.66696,371.818932 276.359814,369.333507 276.573315,366.731722 C275.809169,367.453561 275.259378,368.398406 274.991668,369.449865 C274.991668,369.449865 274.281453,367.611395 276.621243,365.91721 C276.621243,365.91721 276.843458,363.315425 277.113602,362.994274 C277.113602,362.994274 274.582096,364.316111 273.505879,365.935827 C273.505879,365.935827 273.90238,363.520216 277.335816,362.319393 L278.207247,359.768806 C278.207247,359.768806 274.773811,361.323361 273.715023,362.691741 C273.715023,362.691741 274.477524,360.294748 278.47739,359.145122 L279.662536,356.817944 C279.662536,356.817944 276.612529,357.916372 275.122383,359.145122 C275.122383,359.145122 276.277028,357.083243 280.028536,356.133754 L280.991467,354.667632 C280.991467,354.667632 278.778034,355.510071 278.159318,355.812604 C277.540602,356.115137 277.418602,355.966197 277.418602,355.966197 C278.549555,354.944321 279.923546,354.277326 281.387968,354.039294 C281.387968,354.039294 283.570901,351.158248 283.418401,351 Z" id="Path" fill="#6C63FF"></path>
                <path d="M336.801484,178.161075 C333.720154,169.76969 316.758703,168.981079 309.399318,171.120245 C304.169537,172.645522 293.144594,174.36441 287.255202,175.228576 L286.873569,174.864965 C287.636834,174.638298 287.65568,174.081077 287.56145,173.254688 C287.5066,172.165555 287.522338,171.074002 287.608565,169.986912 C291.217585,171.1108 294.430838,168.45219 294.430838,168.45219 C298.6712,166.563303 297.531014,158.478862 298.341394,156.268863 C298.94918,154.616086 299.60408,144.878869 299.896194,140.024427 L299.957444,140.024427 L299.990424,138.395261 C300.032828,137.69165 300.051674,137.280817 300.051674,137.280817 C300.051674,137.280817 300.466287,125.409156 301.276668,123.005547 C302.03051,120.795548 302.643007,109.660553 302.737237,107.894443 C302.737237,107.743332 302.737237,107.663054 302.737237,107.663054 L302.675987,106.63361 C302.718391,105.882777 302.737237,105.046944 302.732525,104.168611 C302.732525,100.131113 302.313201,95.0452827 302.261374,94.2236164 C302.261374,94.1055609 302.261374,93.9638943 302.261374,93.7938944 C302.294355,92.0702842 302.077625,83.4380663 294.751221,80.1750123 C292.051523,78.966124 288.80529,77.525847 285.66271,76.1233477 C284.852329,69.1108512 283.000704,62.1361325 283.160896,55.0716915 C283.160896,54.0091921 283.255126,52.9466926 283.358779,51.8889153 C283.358779,52.1958596 283.325799,52.5075261 283.321087,52.8333593 C283.321087,53.5180812 283.321087,54.2075253 283.321087,54.8922472 C283.599067,46.0569738 286.930107,37.1744783 286.619147,28.5280937 C286.590878,29.373371 286.529628,30.2233706 286.449533,31.0733702 C286.612201,28.148816 286.306801,25.2170158 285.544922,22.3892079 C285.262231,21.3928195 284.880598,20.3633755 284.065506,19.6975425 C283.295058,19.1613001 282.411467,18.810616 281.483597,18.6728208 C279.254119,18.1008511 276.989168,17.6780673 274.703728,17.4072659 C274.356438,16.3418092 273.841063,15.3390067 273.177197,14.4369896 C268.399722,7.86365955 261.323028,1.68699597 252.955379,0.270330012 C248.75742,-0.438002968 243.928118,0.152274515 241.07294,3.16032857 C240.774771,3.42457874 240.494594,3.70854739 240.234291,4.01032814 C238.698337,5.84727167 238.038725,8.26032602 236.465079,10.0925473 C236.361426,10.215325 236.243638,10.3286583 236.130562,10.4467138 C233.049232,13.2092124 228.248199,13.7853233 224.822928,16.2644887 C224.21938,16.7095385 223.653637,17.2039124 223.131494,17.7425435 C221.751315,19.1133664 220.513683,20.6212025 219.437667,22.242819 C217.897002,24.4150402 216.313934,26.6769835 215.823936,29.2694822 C214.83923,34.463924 218.368154,39.3891994 219.023054,44.6166968 C220.483624,56.3136354 207.569363,66.6930746 210.014639,78.23418 C210.667128,81.0694832 212.107986,83.6613889 214.170195,85.709454 C209.133586,90.2805628 204.846108,94.7147273 204.846108,94.7147273 L204.846108,94.9791716 L204.049862,94.9791716 L204.129958,95.9236156 L204.049862,95.9236156 L204.488033,101.047224 L204.049862,108.508332 C204.049862,108.508332 204.049862,108.588609 204.049862,108.73972 L204.049862,108.777498 L204.049862,108.980554 C204.049862,108.980554 204.049862,109.060831 204.049862,109.211942 L204.078131,109.211942 C204.224188,111.946108 204.803705,121.777769 205.491586,123.850824 C206.301966,126.254434 206.711868,138.126095 206.711868,138.126095 C206.711868,138.126095 207.607055,154.904142 208.426859,157.123585 C209.246662,159.343028 208.082918,167.403858 212.337416,169.306912 C213.582049,170.263799 215.055702,170.876095 216.610759,171.082467 C216.394029,172.848577 216.530663,174.128299 217.232679,174.529687 C217.53316,174.706735 217.873649,174.804238 218.222097,174.813021 C217.933444,175.2421 217.676755,175.691931 217.45412,176.158853 C215.76543,175.982146 214.106141,175.590185 212.516453,174.992465 C207.946284,173.103577 192.779921,168.853579 188.374655,171.842744 C183.969389,174.83191 173.368482,177.542464 178.263746,189.57468 C183.159009,201.606896 185.439382,201.909118 185.439382,201.909118 C186.946199,203.005463 188.268039,204.336683 189.35465,205.852172 C190.824642,208.066893 204.521014,213.133835 207.946284,213.133835 C209.402166,213.111355 210.857962,213.183916 212.304435,213.351057 C212.304435,213.351057 208.58705,216.618833 209.081759,218.517165 C209.576468,220.415498 207.950996,235.611601 207.950996,235.611601 C207.950996,235.611601 211.720207,239.417711 213.331545,234.426324 L213.388083,234.50188 C213.68962,234.912713 215.319804,236.768545 218.387,234.426324 C219.642289,233.471811 220.975661,232.625107 222.372941,231.895214 L237.223633,229.789104 C238.771926,229.692111 240.324388,229.681076 241.873898,229.756049 C244.229655,229.94966 246.543008,228.551883 247.998866,227.470494 C251.075485,228.641605 254.533736,229.921326 256.178054,230.388826 C259.513806,231.33327 274.845073,235.455768 278.430536,234.166602 C279.175833,233.869586 279.838529,233.396545 280.362256,232.787714 L283.782816,232.896325 L282.180901,233.217436 C282.180901,233.217436 285.299923,233.26938 289.540286,233.326047 L289.361248,233.429936 L294.680548,233.382714 C302.463969,233.453547 311.208539,233.477158 312.358149,233.217436 C314.157947,232.816047 323.510303,233.09938 326.266538,233.217436 L327.034515,233.217436 C327.034515,233.217436 337.310327,231.16327 333.069965,220.712998 C329.809597,212.685224 319.788207,210.352447 315.340537,209.710225 C316.5938,209.459948 317.672737,209.266337 318.388887,209.153003 C321.493775,208.680781 327.524513,205.84745 328.01451,204.879395 C328.504508,203.911339 333.559962,201.101619 334.865052,199.500786 C336.170141,197.899954 339.896949,186.552459 336.801484,178.161075 Z M251.687981,201.644674 L251.183849,201.809952 L250.84462,201.923285 L250.194432,202.565507 C249.676165,202.216063 249.120206,201.847729 248.54069,201.469952 C249.563089,201.531341 250.613756,201.592729 251.687981,201.644674 Z" id="Shape" fill="url(#linearGradient-1)" fill-rule="nonzero"></path>
                <path d="M282,150.179078 C282,150.179078 289.090244,168.724145 293.121951,166.869638 C297.153659,165.015131 296.06,157.133478 296.829268,154.972977 C297.598537,152.812477 298.45122,136.42791 298.45122,136.42791 C298.45122,136.42791 298.840488,124.837244 299.609756,122.491293 C300.323415,120.335429 300.902683,109.463383 301,107.752601 C301,107.60424 301,107.525424 301,107.525424 L300.235366,94.0802501 L295.907073,93 L285.869512,96.7090134 L284.479268,104.650938 L283.937073,107.752601 L283.705366,109.073937 L282,150.179078 Z" id="Path" fill="#BE6F72"></path>
                <path d="M285,149 C285,149 291.712644,154.624733 293.735632,155.118956 C295.758621,155.613179 297,160 297,160" id="Path" fill="#000000" opacity="0.1"></path>
                <path d="M225,152.179078 C225,152.179078 217.909756,170.724145 213.878049,168.869638 C209.846341,167.015131 210.94,159.133478 210.170732,156.972977 C209.401463,154.812477 208.54878,138.42791 208.54878,138.42791 C208.54878,138.42791 208.159512,126.837244 207.390244,124.491293 C206.676585,122.335429 206.097317,111.463383 206,109.752601 C206,109.60424 206,109.525424 206,109.525424 L206.769268,96.0802501 L211.097561,95 L221.135122,98.7090134 L222.525366,106.650938 L223.067561,109.752601 L223.299268,111.073937 L225,152.179078 Z" id="Path" fill="#BE6F72"></path>
                <rect id="Rectangle" fill="#3E373A" x="256" y="52" width="16" height="25"></rect>
                <rect id="Rectangle" fill="#000000" opacity="0.1" x="256" y="52" width="16" height="25"></rect>
                <path d="M223.900641,170.496617 C223.900641,170.496617 218.41847,176.530636 220.452557,177.626448 C222.486645,178.72226 235.644796,199.2605 235.644796,199.2605 C235.644796,199.2605 278.863284,204.589062 287.013728,196.593868 C295.164171,188.598675 294.999753,174.315497 294.999753,174.315497 C294.999753,174.315497 288.451212,175.726414 287.737168,174.959816 C287.023123,174.193218 283.100575,170.496617 283.100575,170.496617 C283.100575,170.496617 227.658771,167.129229 223.900641,170.496617 Z" id="Path" fill="#4B4B5B"></path>
                <path d="M223.900641,170.496617 C223.900641,170.496617 218.41847,176.530636 220.452557,177.626448 C222.486645,178.72226 235.644796,199.2605 235.644796,199.2605 C235.644796,199.2605 278.863284,204.589062 287.013728,196.593868 C295.164171,188.598675 294.999753,174.315497 294.999753,174.315497 C294.999753,174.315497 288.451212,175.726414 287.737168,174.959816 C287.023123,174.193218 283.100575,170.496617 283.100575,170.496617 C283.100575,170.496617 227.658771,167.129229 223.900641,170.496617 Z" id="Path" fill="#000000" opacity="0.02"></path>
                <path d="M298.986973,95.103571 L284.966018,106.604064 L280.727016,106.920328 L279.17069,107.035332 L253.030956,109 L225.923777,106.968246 L221.890416,106.666358 L216.749399,106.283009 L206,95.74089 C206,95.74089 213.608705,87.3838651 220.273332,81.7438317 C222.899924,79.5156112 225.381633,77.7138673 227.190336,77.0046702 L227.498797,76.8944572 C228.636448,76.4395782 229.652143,75.7135638 230.461893,74.7764497 C235.724424,69.2130863 240.589696,55.4843728 240.589696,55.4843728 C240.589696,55.4843728 263.803723,43.1884291 260.999532,59.3178704 C258.195341,75.4473118 271.435796,71.4604742 271.435796,71.4604742 L275.800987,73.5018117 L277.525564,74.3116381 L281.923471,76.376935 L291.845633,81.0442184 C299.631937,84.7195843 298.986973,95.103571 298.986973,95.103571 Z" id="Path" fill="#BE6F72"></path>
                <ellipse id="Oval" fill="#000000" opacity="0.1" cx="252.5" cy="47" rx="21.5" ry="21"></ellipse>
                <path d="M300.550452,110 L207,110 C207,109.848884 207,109.768603 207,109.768603 L207.773799,96.0736978 C207.773799,96.0736978 215.362625,87.8378649 222.009839,82.2796222 L280.743991,79.9184316 L283.475595,77 L293.371834,81.5995993 C301.142455,85.2169433 300.517822,95.4503434 300.517822,95.4503434 C300.517822,95.4503434 301.580631,107.308243 300.550452,110 Z" id="Path" fill="#000000" opacity="0.1"></path>
                <path d="M300.550452,109 L207,109 C207,108.848884 207,108.768603 207,108.768603 L207.773799,95.0736978 C207.773799,95.0736978 215.362625,86.8378649 222.009839,81.2796222 L280.743991,78.9184316 L283.475595,76 L293.371834,80.5995993 C301.142455,84.2169433 300.517822,94.4503434 300.517822,94.4503434 C300.517822,94.4503434 301.580631,106.308243 300.550452,109 Z" id="Path" fill="#E7C7CA"></path>
                <path d="M237.876016,71.1102544 C237.876016,71.1102544 252.758789,90.0873894 272.582115,70.7197978 C292.405442,51.3522062 274.777395,113.919359 274.777395,113.919359 L232,119 L237.876016,71.1102544 Z" id="Path" fill="#000000" opacity="0.1"></path>
                <path d="M237.876016,72.1102544 C237.876016,72.1102544 252.758789,91.0873894 272.582115,71.7197978 C292.405442,52.3522062 274.777395,114.919359 274.777395,114.919359 L232,120 L237.876016,72.1102544 Z" id="Path" fill="#E7C7CA"></path>
                <path d="M279.410597,73.7814593 L280.978035,97.9782801 L282.657768,106.029679 L283.939793,112.186631 C283.939793,112.186631 287.215038,159.547799 286.279254,161.915857 C285.34347,164.283916 286.747146,166.178362 286.943661,167.438169 C287.140176,168.697977 286.747146,171.861703 286.901551,173.282538 C287.055955,174.703373 286.901551,175.333276 283.317496,174.826512 C279.733442,174.319747 274.736354,173.43883 274.736354,173.43883 C274.736354,173.43883 262.103264,174.386053 257.73783,172.808926 C253.372396,171.231799 245.104741,171.227063 245.104741,171.227063 C245.104741,171.227063 232.626056,171.544383 228.57411,171.070771 C224.522163,170.597159 222.332428,176.124208 219.684158,174.542345 C217.035888,172.960482 222.80032,157.653352 224.671889,153.229819 C226.543458,148.806286 222.178024,137.600633 222.178024,137.600633 L227.79273,106.072304 L229.042002,98.9255035 L229.042002,76.4573653 L229.350811,76.3484346 C230.489744,75.8988483 231.506585,75.1812814 232.317247,74.255071 L233.720924,96.8652927 L277.70279,98.4471557 L277.70279,73" id="Path" fill="#000000" opacity="0.1"></path>
                <path d="M279.410597,73.7814593 L280.978035,97.9782801 L282.657768,106.029679 L283.939793,112.186631 C283.939793,112.186631 287.215038,159.547799 286.279254,161.915857 C285.34347,164.283916 286.747146,166.178362 286.943661,167.438169 C287.140176,168.697977 286.747146,171.861703 286.901551,173.282538 C287.055955,174.703373 286.901551,175.333276 283.317496,174.826512 C279.733442,174.319747 274.736354,173.43883 274.736354,173.43883 C274.736354,173.43883 262.103264,174.386053 257.73783,172.808926 C253.372396,171.231799 245.104741,171.227063 245.104741,171.227063 C245.104741,171.227063 232.626056,171.544383 228.57411,171.070771 C224.522163,170.597159 222.332428,176.124208 219.684158,174.542345 C217.035888,172.960482 222.80032,157.653352 224.671889,153.229819 C226.543458,148.806286 222.178024,137.600633 222.178024,137.600633 L227.79273,106.072304 L229.042002,98.9255035 L229.042002,76.4573653 L229.350811,76.3484346 C230.489744,75.8988483 231.506585,75.1812814 232.317247,74.255071 L233.720924,96.8652927 L277.70279,98.4471557 L277.70279,73" id="Path" fill="#E7C7CA"></path>
                <path d="M284.088682,24.2401085 C283.818,23.2536639 283.442845,22.2294607 282.664041,21.5686845 C281.920359,21.0379425 281.061394,20.6886914 280.156672,20.5492011 C277.990639,19.9831034 275.788473,19.5636495 273.565332,19.2937263 C273.247745,18.2456915 272.767045,17.2535294 272.14069,16.3532719 C267.486862,9.82102674 260.601096,3.66164813 252.499636,2.26929817 C248.258953,1.53772447 243.343941,2.19378089 240.627625,5.51654146 C239.1365,7.3431158 238.495412,9.76438877 236.990041,11.5579243 C234.088521,15.0411591 228.85059,15.4706637 225.194011,18.1656868 C223.242252,19.5816359 221.827108,21.6347621 220.445206,23.6265305 C218.949333,25.783493 217.41072,28.0301322 216.93584,30.6071596 C215.986079,35.7564945 219.409967,40.6651181 220.041558,45.8616513 C221.466199,57.4865934 208.929356,67.7994228 211.299009,79.2686105 C212.680911,85.9566101 218.897096,90.6670008 225.326977,93.055235 C227.592157,93.9000846 230.180255,94.7402144 231.239239,96.9018967 C231.714119,97.8458628 231.794849,98.9361436 232.241236,99.8895493 C233.741858,103.070715 238.675866,103.193431 241.325699,100.875994 C243.975532,98.5585572 244.811321,94.8110119 245.124742,91.3136176 C246.397422,76.0402466 240.242972,60.9509489 240.960041,45.6398193 C241.173737,41.0096657 242.484407,35.7564945 246.658606,33.6608898 C252.276442,30.8289916 259.03399,35.548822 265.216934,34.6473344 C268.142783,41.7230119 268.763908,49.5321455 266.992986,56.9768518 C266.009984,61.0500654 264.309912,65.0005634 264.186443,69.2012124 C264.00124,75.5965825 267.472616,81.4397325 270.47386,87.0940892 C271.117844,88.1514431 271.548503,89.3233176 271.741791,90.5442852 C271.789032,91.7831039 271.557013,93.0167487 271.062712,94.1549554 C269.367389,98.6907124 266.442125,102.900801 266.109709,107.729188 C266.012297,108.292818 266.140086,108.871979 266.465869,109.34337 C266.800452,109.657981 267.232225,109.850927 267.691061,109.89087 C272.819769,110.764038 277.255153,106.247161 279.757772,101.711404 C282.547985,96.7016998 284.173878,91.1344951 284.516074,85.4185495 C285.033694,75.8089749 281.567067,66.3551547 281.780763,56.7361404 C282.027701,45.8002935 286.999699,34.7889293 284.088682,24.2401085 Z" id="Path" fill="#000000" opacity="0.1"></path>
                <path d="M285.088682,23.2401085 C284.818,22.2536639 284.442845,21.2294607 283.664041,20.5686845 C282.920359,20.0379425 282.061394,19.6886914 281.156672,19.5492011 C278.990639,18.9831034 276.788473,18.5636495 274.565332,18.2937263 C274.247745,17.2456915 273.767045,16.2535294 273.14069,15.3532719 C268.486862,8.82102674 261.601096,2.66164813 253.499636,1.26929817 C249.258953,0.53772447 244.343941,1.19378089 241.627625,4.51654146 C240.1365,6.3431158 239.495412,8.76438877 237.990041,10.5579243 C235.088521,14.0411591 229.85059,14.4706637 226.194011,17.1656868 C224.242252,18.5816359 222.827108,20.6347621 221.445206,22.6265305 C219.949333,24.783493 218.41072,27.0301322 217.93584,29.6071596 C216.986079,34.7564945 220.409967,39.6651181 221.041558,44.8616513 C222.466199,56.4865934 209.929356,66.7994228 212.299009,78.2686105 C213.680911,84.9566101 219.897096,89.6670008 226.326977,92.055235 C228.592157,92.9000846 231.180255,93.7402144 232.239239,95.9018967 C232.714119,96.8458628 232.794849,97.9361436 233.241236,98.8895493 C234.741858,102.070715 239.675866,102.193431 242.325699,99.8759939 C244.975532,97.5585572 245.811321,93.8110119 246.124742,90.3136176 C247.397422,75.0402466 241.242972,59.9509489 241.960041,44.6398193 C242.173737,40.0096657 243.484407,34.7564945 247.658606,32.6608898 C253.276442,29.8289916 260.03399,34.548822 266.216934,33.6473344 C269.142783,40.7230119 269.763908,48.5321455 267.992986,55.9768518 C267.009984,60.0500654 265.309912,64.0005634 265.186443,68.2012124 C265.00124,74.5965825 268.472616,80.4397325 271.47386,86.0940892 C272.117844,87.1514431 272.548503,88.3233176 272.741791,89.5442852 C272.789032,90.7831039 272.557013,92.0167487 272.062712,93.1549554 C270.367389,97.6907124 267.442125,101.900801 267.109709,106.729188 C267.012297,107.292818 267.140086,107.871979 267.465869,108.34337 C267.800452,108.657981 268.232225,108.850927 268.691061,108.89087 C273.819769,109.764038 278.255153,105.247161 280.757772,100.711404 C283.547985,95.7016998 285.173878,90.1344951 285.516074,84.4185495 C286.033694,74.8089749 282.567067,65.3551547 282.780763,55.7361404 C283.027701,44.8002935 287.999699,33.7889293 285.088682,23.2401085 Z" id="Path" fill="#3E373A"></path>
                <polygon id="Path" fill="#C3C7D9" points="274 231.438817 293 232 290.274767 219 275.719435 220.277022"></polygon>
                <path d="M332.957148,199.172816 C331.697583,200.740037 326.824435,203.563859 326.352688,204.505133 C325.880941,205.446407 320.064299,208.270229 317.073422,208.740866 C314.082546,209.211503 304.65232,211.254067 302.921008,212.350651 C301.680314,213.141322 291.721732,215.64511 285.178599,217.03349 C283.406337,217.451785 281.612635,217.77386 279.805399,217.998295 C276.974916,218.153606 246,207.644282 246,207.644282 L251.972319,201.526001 L252.302542,201.413048 C253.991396,200.843577 261.794094,198.212716 266.124732,196.960822 C271.002598,195.548911 276.663563,189.745957 276.663563,189.745957 C276.663563,189.745957 284.994618,186.922135 286.098506,186.606808 C287.202394,186.291481 283.268023,175.626847 283.268023,175.626847 C283.268023,175.626847 301.350091,173.123058 308.426297,171.000485 C315.502504,168.877912 331.857977,169.663876 334.844137,177.980032 C337.830296,186.296187 334.235583,197.605594 332.957148,199.172816 Z" id="Path" fill="#4B4B5B"></path>
                <path d="M250,225.469249 C250,225.469249 246.380817,229.198487 242.75691,228.890825 C239.133003,228.583163 226.461139,229.823135 226.461139,229.823135 C224.164735,230.726878 222.014338,231.956505 220.077959,233.473127 C217.115521,235.775932 215.542169,233.939282 215.249232,233.547712 L215.19726,233.473127 C213.619183,238.372414 210,234.638514 210,234.638514 C210,234.638514 211.573352,219.72156 211.091425,217.856941 C210.609497,215.992322 214.205056,212.789839 214.205056,212.789839 L218.457359,211.722344 L229.229861,209 L244.665722,214.281534 L250,225.469249 Z" id="Path" fill="#E7C7CA"></path>
                <path d="M219,212 L215.598544,234.474748 L215.543113,234.397944 C213.860022,239.443001 210,235.598005 210,235.598005 C210,235.598005 211.678052,220.237221 211.164054,218.317123 C210.650056,216.397025 214.484882,213.099256 214.484882,213.099256 L219,212 Z" id="Path" fill="#000000" opacity="0.1"></path>
                <path d="M240,149 C240,149 248.562424,151.25 256,149" id="Path" fill="#000000" opacity="0.1"></path>
                <path d="M269,155 C269,155 272.383077,157.25 275,155" id="Path" fill="#000000" opacity="0.1"></path>
                <path d="M269,158.804299 C269,158.804299 274.883436,159.594236 276,158" id="Path" fill="#000000" opacity="0.1"></path>
                <path d="M268,168 C268,168 278.414389,166.285714 281,164" id="Path" fill="#000000" opacity="0.1"></path>
                <path d="M234,164 C234,164 239.734451,168.182109 244,167.993828" id="Path" fill="#000000" opacity="0.1"></path>
                <path d="M284.958782,216.067691 C283.151228,216.471184 281.321807,216.781862 279.478583,216.998356 C276.591735,217.14817 245,207.010733 245,207.010733 L251.091248,201.108956 L251.428047,201 C252.39033,201.640116 253.179402,202.189435 253.742337,202.607099 C256.393425,204.577385 258.953097,202.003302 259.915379,202.003302 C260.877662,202.003302 269.21584,208.508876 269.21584,208.508876 C269.21584,208.508876 276.9141,210.174993 278.198747,211.686756 C279.483394,213.198519 283.972442,212.898891 284.771137,213.956671 C285.011708,214.283538 285.040576,215.087088 284.958782,216.067691 Z" id="Path" fill="#000000" opacity="0.1"></path>
                <path d="M227.081129,175.563193 C227.081129,175.563193 219.480045,176.000375 215.096972,174.152928 C210.7139,172.305481 196.150636,168.04178 191.922592,171.036243 C187.694547,174.030705 177.514356,176.677303 182.212183,188.58934 C186.91001,200.501378 189.103896,200.811637 189.103896,200.811637 C190.557423,201.902375 191.826352,203.219745 192.862157,204.71337 C194.271505,206.908682 207.425421,211.919823 210.7139,211.919823 C214.002379,211.919823 219.794799,211.919823 227.936133,217.560883 C236.077468,223.201943 243.438962,223.831861 243.438962,223.831861 C243.438962,223.831861 253.774182,228.062656 256.992193,229.002833 C260.210205,229.943009 274.914403,234.013974 278.362608,232.763539 C281.810813,231.513104 284.000001,223.672031 284.000001,223.672031 C284.000001,223.672031 285.564377,216.620706 284.77984,215.525401 C283.995303,214.430095 279.61223,214.740353 278.362608,213.174959 C277.112986,211.609565 269.591765,209.884341 269.591765,209.884341 C269.591765,209.884341 261.469222,203.143275 260.529657,203.143275 C259.590092,203.143275 257.090848,205.803974 254.502345,203.768492 C249.34605,199.946874 243.928744,196.491114 238.290144,193.426549 C232.342695,190.29106 227.081129,175.563193 227.081129,175.563193 Z" id="Path" fill="#4B4B5B"></path>
                <path d="M211,181.171702 C213.73148,180.642035 216.566883,181.353024 218.666342,183.094069 C222.408302,186.055313 235,192 235,192" id="Path" fill="#000000" opacity="0.1"></path>
                <path d="M305,181 C305,181 288.989369,183.545169 286,187" id="Path" fill="#000000" opacity="0.1"></path>
                <path d="M325.201927,232.788546 L324.462023,232.788546 C321.804023,232.693392 312.797927,232.40793 311.063629,232.788546 C309.023001,233.264317 282,232.788546 282,232.788546 L287.283011,231.68 C287.283011,231.68 285.3225,224.74326 286.56667,224.167577 C286.56667,224.167577 279.497521,219.46696 284.82766,216.293568 C290.157798,213.120176 295.90266,214.457093 295.90266,214.457093 L309.282203,209.880176 L311.850661,209 C311.850661,209 326.931512,209.794537 331.012768,220.261498 C335.094023,230.728458 325.201927,232.788546 325.201927,232.788546 Z" id="Path" fill="#E7C7CA"></path>
                <path d="M323.416721,233 L322.700195,233 C326.949149,229.30991 336.560639,218.076276 308,209.888889 L310.487304,209 C310.487304,209 325.091658,209.802402 329.043961,220.372973 C332.996264,230.943544 323.416721,233 323.416721,233 Z" id="Path" fill="#000000" opacity="0.1"></path>
                <circle id="Oval" fill="#4B4B5B" cx="297" cy="219" r="1"></circle>
                <circle id="Oval" fill="#4B4B5B" cx="292" cy="222" r="1"></circle>
                <g id="Group" opacity="0.1" transform="translate(212.000000, 29.000000)" fill="#000000">
                    <path d="M56.6359236,17.6047059 C56.8187206,12.4286192 55.8964809,7.27292909 53.9304459,2.48 C47.8030573,3.39294118 41.0912102,-1.32705882 35.5105732,1.49647059 C31.3816561,3.58588235 30.0854777,8.82352941 29.8545223,13.44 C29.7979618,14.6588235 29.788535,15.8776471 29.8121019,17.0964706 C29.8121019,16.6635294 29.8121019,16.2258824 29.8545223,15.7929412 C30.0713376,11.1764706 31.3675159,5.93882353 35.5105732,3.84941176 C41.0912102,1.02588235 47.7936306,5.73176471 53.9304459,4.83294118 C55.5954668,8.89272863 56.512018,13.219497 56.6359236,17.6047059 Z" id="Path"></path>
                    <path d="M9.1533758,16.7435294 C9.2341043,15.7181236 9.2135808,14.6872751 9.09210191,13.6658824 C8.59248408,9.52470588 6.32535032,5.56705882 5.91528662,1.52941176 C5.38738854,6.4 8.49350318,11.0776471 9.09210191,16.0188235 C9.1533758,16.2729412 9.1533758,16.4988235 9.1533758,16.7435294 Z" id="Path"></path>
                    <path d="M33.9881529,58.9741176 C33.6959236,62.4658824 32.8710828,66.1976471 30.2174522,68.5129412 C27.5638217,70.8282353 22.676051,70.7011765 21.2007643,67.5294118 C20.7294268,66.5882353 20.6587261,65.4917647 20.2015287,64.5505882 C19.1551592,62.3952941 16.5816561,61.5576471 14.3333758,60.7152941 C7.94675159,58.3294118 1.78636943,53.6564706 0.41477707,46.9694118 C0.292249504,46.3636158 0.20880821,45.75059 0.164968153,45.1341176 C0.0490560044,46.5349616 0.13316688,47.945144 0.41477707,49.3223529 C1.78636943,55.9905882 7.95617834,60.6823529 14.3333758,63.0682353 C16.5816561,63.9105882 19.1551592,64.7482353 20.2015287,66.9035294 C20.6728662,67.8447059 20.7529936,68.9317647 21.2007643,69.8823529 C22.6854777,73.0541176 27.5826752,73.1764706 30.2174522,70.8658824 C32.8522293,68.5552941 33.6723567,64.8188235 33.9881529,61.3270588 C34.1316558,59.4892072 34.1804251,57.6452047 34.1342675,55.8023529 C34.1342675,56.8705882 34.0729936,57.9247059 33.9881529,58.9741176 Z" id="Path"></path>
                    <path d="M70.3942675,24.5035294 C70.3942675,25.1858824 70.3942675,25.8635294 70.3942675,26.5411765 C70.6582166,17.7882353 73.8727389,8.98823529 73.5569427,0.418823529 C73.3118471,8.34352941 70.5733758,16.4470588 70.3942675,24.5035294 Z" id="Path"></path>
                    <path d="M60.2793631,59.9105882 C60.3952982,59.3522163 60.4317934,58.7803117 60.3877707,58.2117647 C60.1979319,56.9938878 59.770348,55.8250979 59.1292994,54.7717647 C56.4049682,49.5952941 53.2988535,44.2964706 52.9312102,38.5505882 C52.9312102,38.7952941 52.8982166,39.0211765 52.8935032,39.2847059 C52.7049682,45.6564706 56.1504459,51.4870588 59.1292994,57.1247059 C59.6355648,57.9978781 60.0223609,58.9348424 60.2793631,59.9105882 Z" id="Path"></path>
                    <path d="M73.1044586,53.1011765 C72.7525996,58.8024536 71.1276485,64.3529128 68.3486624,69.3458824 C65.86,73.8682353 61.4624204,78.3717647 56.3672611,77.5011765 C55.910772,77.4618983 55.4815647,77.2675672 55.1512102,76.9505882 C55.055482,76.8428082 54.9803936,76.7183915 54.9296815,76.5835294 C54.873121,76.9505882 54.8259873,77.3223529 54.797707,77.6988235 C54.7002531,78.2593112 54.8272027,78.8355912 55.1512102,79.3035294 C55.4815647,79.6205084 55.910772,79.8148394 56.3672611,79.8541176 C61.4624204,80.7247059 65.86,76.2211765 68.3486624,71.6988235 C71.1276485,66.7058539 72.7525996,61.1553948 73.1044586,55.4541176 C73.1610191,54.3529412 73.1657325,53.2564706 73.1327389,52.16 C73.1233121,52.4752941 73.1233121,52.7858824 73.1044586,53.1011765 Z" id="Path"></path>
                </g>
                <path d="M286,222.903017 C286,222.903017 297.449762,227.770257 305,217" id="Path" stroke="#000000" opacity="0.1"></path>
                <path d="M288,233 C288,233 297.675319,224.195357 310,232.711753" id="Path" stroke="#000000" opacity="0.1"></path>
                <path d="M223,232 C223,232 227.086629,222.460654 238,229.734527" id="Path" stroke="#000000" opacity="0.1"></path>
                <path d="M210,96.0908009 L218.359811,88.6564189 C218.359811,88.6564189 250.774152,86.565499 252.1155,97.4057572 C252.1155,97.4057572 263.606698,84.5535694 287.774581,87.4158064 L298,95.426353 L269.737226,107.628032 L242.272649,117 L222.043796,108.092681 L210,96.0908009 Z" id="Path" fill="#000000" opacity="0.1"></path>
                <path d="M210,96.0908009 L218.359811,88.6564189 C218.359811,88.6564189 250.774152,86.565499 252.1155,97.4057572 C252.1155,97.4057572 263.606698,84.5535694 287.774581,87.4158064 L298,95.426353 L269.737226,107.628032 L242.272649,117 L222.043796,108.092681 L210,96.0908009 Z" id="Path" fill="#D5D6DB"></path>
                <polygon id="Path" fill="#000000" opacity="0.1" points="205 97 208.706815 141.039452 248 143 246.295717 99.14861 246.262578 98.4104661"></polygon>
                <polygon id="Path" fill="#6C63FF" points="205 95 208.706815 139.039452 248 141 246.295717 97.14861 246.262578 96.4104661"></polygon>
                <polygon id="Path" fill="#000000" opacity="0.1" points="300 96 259 102.003928 259 146 299.066223 140.346769"></polygon>
                <polygon id="Path" fill="#6C63FF" points="300 94 259 100.003928 259 144 299.066223 138.346769"></polygon>
                <polygon id="Path" fill="#FFFFFF" opacity="0.3" points="290 105 268 107.45933 268.480432 115 289.98573 112.636364"></polygon>
                <path d="M211.957308,162.400132 L214.200815,168.232375 C214.200815,168.232375 217.535114,170.994289 221.18379,169.613332 C224.832465,168.232375 228.014339,167.546499 229.600513,166.202367 C231.186686,164.858236 233.41114,158.105354 233.41114,158.105354 C233.41114,158.105354 235.635594,150.740249 237.855284,148.898972 C240.074974,147.057696 245.952867,121.689511 237.855284,124.17063 C229.757701,126.65175 223.565432,149.667705 223.565432,149.667705 C223.565432,149.667705 222.136447,151.352473 220.073945,151.508982 C218.011443,151.66549 213.881675,151.200568 213.086207,152.889939 C212.290738,154.57931 209.575666,159.025993 211.957308,162.400132 Z" id="Path" fill="#BE6F72"></path>
                <path d="M258,100.984752 C254.105972,101.939797 250.026395,100.83284 247,98 L248.581442,142.466137 C248.581442,142.466137 252.305058,146.852674 258,145.851399 L258,100.984752 Z" id="Path" fill="#000000" opacity="0.1"></path>
                <path d="M258,99.9847525 C254.105972,100.939797 250.026395,99.83284 247,97 L248.581442,141.466137 C248.581442,141.466137 252.305058,145.852674 258,144.851399 L258,99.9847525 Z" id="Path" fill="#6C63FF"></path>
                <path d="M258,99.9847525 C254.105972,100.939797 250.026395,99.83284 247,97 L248.581442,141.466137 C248.581442,141.466137 252.305058,145.852674 258,144.851399 L258,99.9847525 Z" id="Path" fill="#000000" opacity="0.1"></path>
                <path d="M261,96 C261,96 276.864268,91.4167824 281,92.062306" id="Path" fill="#000000" opacity="0.1"></path>
                <path d="M242,94 C242,94 225.719797,88.7844859 223,90.2643881" id="Path" fill="#000000" opacity="0.1"></path>
                <path d="M270,97 C270,97 281.017029,90.8723461 285,93.7854931" id="Path" fill="#000000" opacity="0.1"></path>
                <path d="M265,197 C266.647374,195.607665 268.400927,194.382001 270.240169,193.337329 C272.978933,191.85274 278,188 278,188" id="Path" fill="#000000" opacity="0.1"></path>
                <path d="M223,149 C223,149 216.282759,154.624733 214.264368,155.118956 C212.245977,155.613179 211,160 211,160" id="Path" fill="#000000" opacity="0.1"></path>
                <path d="M295.03831,162.386322 L292.81763,168.232375 C292.81763,168.232375 289.481844,170.994289 285.826777,169.613332 C282.17171,168.232375 278.997948,167.546499 277.406302,166.202367 C275.814656,164.858236 273.593976,158.105354 273.593976,158.105354 C273.593976,158.105354 271.373296,150.740249 269.147851,148.898972 C266.922406,147.057696 261.046658,121.689511 269.147851,124.17063 C277.249044,126.65175 283.444073,149.667705 283.444073,149.667705 C283.444073,149.667705 284.873696,151.352473 286.937117,151.508982 C289.000538,151.66549 293.132147,151.200568 293.92797,152.889939 C294.723793,154.57931 297.421013,159.025993 295.03831,162.386322 Z" id="Path" fill="#BE6F72"></path>
                <path d="M292,152 C292,152 296.016771,154.732938 295.999947,158" id="Path" fill="#000000" opacity="0.1"></path>
                <ellipse id="Oval" fill="#BE6F72" cx="252.5" cy="47" rx="21.5" ry="21"></ellipse>
                <path d="M239.507974,40.9323675 C242.08283,40.5365172 244.339391,39.0695422 246.800231,38.2266138 C252.306242,36.331189 258.396584,37.6305097 263.969104,39.3396519 C266.106899,39.9962978 268.277949,40.7367709 270.520259,40.7367709 C272.762569,40.7367709 275.142647,39.8379577 276.287556,37.9425329 C277.342201,36.2007912 277.137923,33.9374584 276.24955,32.1072326 C275.361178,30.2770067 273.874222,28.8053747 272.373015,27.4175698 C267.432332,22.8443336 261.303985,18.5691495 254.524799,19.0348559 C251.797922,19.2257955 249.189812,20.1804934 246.681465,21.2376468 C243.523057,22.5718952 240.44867,24.0896899 237.474693,25.7829406 C235.189627,27.0822613 230.956792,28.8193459 229.640861,31.1944482 C226.647947,36.5454139 234.852331,41.6495553 239.507974,40.9323675 Z" id="Path" fill="#3E373A"></path>
                <path d="M276.284965,36.0649711 C275.140166,38.1539146 272.760315,39.1444947 270.51822,39.1444947 C268.276124,39.1444947 266.105282,38.3592162 263.962941,37.6355281 C258.390954,35.7518862 252.305945,34.3147752 246.795711,36.4088512 C244.339856,37.3378408 242.07876,38.9751209 239.504151,39.385724 C235.751491,40.0221589 229.709234,36.4909719 229.053706,32 C228.317425,37.1889972 235.323973,41.6337762 239.504151,40.9254858 C242.07876,40.48922 244.339856,38.8724701 246.795711,37.948613 C252.305945,35.854537 258.390954,37.291648 263.962941,39.1752899 C266.105282,39.8989779 268.271374,40.7150517 270.51822,40.6842565 C272.765065,40.6534612 275.140166,39.6988089 276.284965,37.6047329 C276.878372,36.4655287 277.111846,35.1483396 276.949993,33.8528467 C276.875884,34.6328051 276.6492,35.3868384 276.284965,36.0649711 Z" id="Path" fill="#000000" opacity="0.1"></path>
                <path d="M447.163583,292 C447.163583,292 449.76674,295.52637 445.960776,300.854602 C442.154811,306.182834 439.020487,310.678387 440.284752,314 C440.284752,314 446.026623,304.107963 450.69738,303.966908 C455.368137,303.825853 452.29527,297.947053 447.163583,292 Z" id="Path" fill="#6C63FF"></path>
                <path d="M447.096066,292 C447.325377,292.340342 447.506289,292.712318 447.633378,293.104774 C452.242712,298.651374 454.7028,303.829717 450.266649,303.957016 C446.136898,304.079769 441.185638,311.640422 440,313.545361 C440.037925,313.699315 440.083877,313.851079 440.137658,314 C440.137658,314 445.945953,304.11614 450.670742,303.975201 C455.395532,303.834263 452.287118,297.942137 447.096066,292 Z" id="Path" fill="#000000" opacity="0.1"></path>
                <path d="M453,295.043924 C453,296.677545 452.773723,298 452.50365,298 C452.233577,298 452,296.677545 452,295.043924 C452,293.410303 452.277372,294.182234 452.554745,294.182234 C452.832117,294.182234 453,293.410303 453,295.043924 Z" id="Path" fill="#FFD037"></path>
                <path d="M455.050049,297.02365 C453.489928,297.715341 452.125638,298.135677 452.008139,297.960094 C451.890641,297.78451 453.059099,297.076857 454.61922,296.363883 C456.179341,295.650909 455.565737,296.172338 455.683236,296.363883 C455.800735,296.555428 456.616698,296.326638 455.050049,297.02365 Z" id="Path" fill="#FFD037"></path>
                <path d="M432.83874,292 C432.83874,292 430.235461,295.52637 434.041604,300.854602 C437.847747,306.182834 440.982217,310.678387 439.713503,314 C439.713503,314 433.975754,304.107963 429.300388,303.966908 C424.625023,303.825853 427.719983,297.947053 432.83874,292 Z" id="Path" fill="#6C63FF"></path>
                <path d="M432.905066,292 C432.675792,292.340342 432.494908,292.712318 432.36784,293.104774 C427.759241,298.651374 425.299545,303.829717 429.734989,303.957016 C433.859641,304.079769 438.814551,311.640422 440,313.545361 C439.962772,313.700033 439.915303,313.851931 439.857924,314 C439.857924,314 434.054996,304.11614 429.32652,303.975201 C424.598044,303.834263 427.728162,297.942137 432.905066,292 Z" id="Path" fill="#000000" opacity="0.1"></path>
                <path d="M427,295.043924 C427,296.677545 427.218978,298 427.49635,298 C427.773723,298 428,296.677545 428,295.043924 C428,293.410303 427.715328,294.182234 427.445255,294.182234 C427.175182,294.182234 427,293.410303 427,295.043924 Z" id="Path" fill="#FFD037"></path>
                <path d="M424.949951,297.02365 C426.510072,297.715341 427.874362,298.135677 427.991861,297.960094 C428.109359,297.78451 426.940901,297.076857 425.38078,296.363883 C423.820659,295.650909 424.434263,296.172338 424.316764,296.363883 C424.199265,296.555428 423.383302,296.326638 424.949951,297.02365 Z" id="Path" fill="#FFD037"></path>
                <ellipse id="Oval" fill="#6C63FF" opacity="0.1" cx="440" cy="336" rx="29" ry="5"></ellipse>
                <path d="M454.993811,308.690799 L454.852867,309.821112 L454.655546,311.418496 L454.575678,312.086408 L454.378357,313.683793 L454.293791,314.351705 L454.101168,315.944418 L451.869562,334.113498 C451.672241,335.734236 449.008407,337 445.790195,337 L434.209332,337 C430.99112,337 428.331985,335.734236 428.129965,334.113498 L425.898359,315.944418 L425.701038,314.351705 L425.62117,313.683793 L425.423849,312.086408 L425.339283,311.418496 L425.14666,309.821112 L425.005716,308.690799 C424.897659,307.756656 426.335284,307 428.158154,307 L451.846071,307 C453.664243,307 455.106566,307.770668 454.993811,308.690799 Z" id="Path" fill="#65617D"></path>
                <polygon id="Path" fill="#9D9CB5" points="455 309 454.805472 311 425.199272 311 425 309"></polygon>
                <polygon id="Path" fill="#9D9CB5" points="455 312 454.80838 314 426.196293 314 426 312"></polygon>
                <polygon id="Path" fill="#9D9CB5" points="455 315 454.799869 317 426.195366 317 426 315"></polygon>
            </g>
        </g>
    </g>
</svg>
